<svg width="28" height="28" viewBox="0 0 28 28" fill="none" xmlns="http://www.w3.org/2000/svg">
<path d="M19.5229 10.5922C20.0371 10.113 20.0654 9.30761 19.5862 8.79341C19.1069 8.27921 18.3016 8.25087 17.7874 8.73012L14.0632 12.2011L10.5922 8.47698C10.113 7.96278 9.30761 7.93444 8.79341 8.41369C8.27921 8.89294 8.25087 9.69829 8.73012 10.2125L12.2011 13.9366L8.47698 17.4077C7.96278 17.8869 7.93444 18.6923 8.41369 19.2065C8.89294 19.7207 9.69829 19.749 10.2125 19.2697L13.9366 15.7987L17.4077 19.5229C17.8869 20.0371 18.6923 20.0654 19.2065 19.5862C19.7207 19.1069 19.749 18.3016 19.2697 17.7874L15.7987 14.0632L19.5229 10.5922Z" fill="#24313A"/>
<path fill-rule="evenodd" clip-rule="evenodd" d="M0 14C0 6.26801 6.26801 0 14 0C21.732 0 28 6.26801 28 14C28 21.732 21.732 28 14 28C6.26801 28 0 21.732 0 14ZM14 26.4545C7.67383 26.4545 1.54545 20.3262 1.54545 14C1.54545 7.67383 7.67383 1.54545 14 1.54545C20.3262 1.54545 26.4545 7.67383 26.4545 14C26.4545 20.3262 20.3262 26.4545 14 26.4545Z" fill="#24313A"/>
</svg>
