<svg width="269" height="269" viewBox="0 0 269 269" fill="none" xmlns="http://www.w3.org/2000/svg">
<g opacity="0.1" clip-path="url(#clip0)">
<path d="M207.316 92.7256C204.022 92.7256 201.348 95.3964 201.348 98.6998C201.348 102.001 204.022 104.676 207.316 104.676C210.618 104.676 213.285 102.001 213.285 98.6998C213.285 95.3964 210.618 92.7256 207.316 92.7256Z" fill="#0177FB"/>
<path d="M98.868 201.314C95.5666 201.314 92.8994 203.992 92.8994 207.291C92.8994 210.597 95.5666 213.268 98.868 213.268C102.162 213.268 104.837 210.597 104.837 207.291C104.837 203.992 102.162 201.314 98.868 201.314Z" fill="#0177FB"/>
<path d="M298.469 36.7676C296.455 36.2984 294.338 36.9077 292.883 38.3785L268.139 63.3517H256.276L243.217 49.804V37.7598L267.607 12.9734C269.05 11.5073 269.638 9.39916 269.16 7.39374C268.684 5.39066 267.211 3.77512 265.262 3.11677C259.134 1.04831 252.723 7.87257e-05 246.201 7.87257e-05C226.761 7.87257e-05 209.1 9.07699 197.745 24.9032C187.118 39.7186 183.843 57.8747 188.536 75.2511L144.571 119.275L71.3235 45.7628V31.335C71.3235 29.2362 70.2231 27.2892 68.4255 26.2106L26.2226 0.852206C23.8725 -0.560224 20.8671 -0.189023 18.932 1.75103L2.05176 18.6512C0.116603 20.5912 -0.254108 23.6005 1.15413 25.9538L26.4744 68.2123C27.5516 70.0123 29.4937 71.1119 31.5898 71.1142L45.9939 71.1189L119.248 144.631L75.4503 188.486C58.0968 183.789 39.9553 187.074 25.1525 197.722C9.35641 209.084 0.298462 226.764 0.298462 246.23C0.298462 252.757 1.34531 259.18 3.41104 265.313C4.07086 267.276 5.70059 268.759 7.71502 269.226C9.73179 269.695 11.8465 269.086 13.3037 267.615L38.0458 242.644H49.9738L63.5642 256.252V268.196L38.6263 292.971C37.1574 294.43 36.5489 296.547 37.0176 298.567C37.4839 300.584 38.9644 302.216 40.9252 302.877C47.0501 304.945 53.4641 305.993 59.983 305.993C79.4232 305.993 97.0775 296.921 108.427 281.104C119.061 266.282 122.342 248.119 117.651 230.742L152.826 195.52L160.884 204.284L157.186 207.985C154.855 210.319 154.855 214.104 157.186 216.438C159.518 218.77 163.295 218.77 165.629 216.438L168.977 213.086L244.579 295.315C244.635 295.376 244.693 295.434 244.751 295.492C258.74 309.5 281.405 309.504 295.401 295.49C309.358 281.508 309.358 258.757 295.401 244.775C295.341 244.715 295.278 244.656 295.215 244.598L212.966 169.041L216.276 165.726C218.608 163.394 218.608 159.609 216.276 157.275C213.945 154.94 210.168 154.94 207.834 157.275L204.162 160.954L195.393 152.895L230.739 117.503C235.763 118.847 240.949 119.529 246.201 119.529C279.113 119.529 305.886 92.7186 305.886 59.7657C305.886 53.2359 304.839 46.8157 302.773 40.6804C302.114 38.717 300.484 37.2346 298.469 36.7676ZM52.6947 60.9214C51.5756 59.7984 50.0577 59.2264 48.4723 59.2264L34.9728 59.2218L13.7886 23.806L24.0776 13.5034L59.3862 34.7202V48.2375C59.3862 49.8204 60.0133 51.3378 61.1301 52.4585L136.13 127.728L127.688 136.179L52.6947 60.9214ZM204.516 177.502L287.045 253.313C296.264 262.642 296.236 277.747 286.959 287.041C277.661 296.351 262.608 296.379 253.273 287.123L177.424 204.625L204.516 177.502ZM195.712 169.412L169.331 195.824L161.274 187.06L186.944 161.353L195.712 169.412ZM246.201 107.576C240.981 107.576 235.847 106.738 230.946 105.085C228.799 104.364 226.426 104.919 224.821 106.523C194.899 136.485 130.423 201.044 106.681 224.819C105.077 226.426 104.52 228.802 105.245 230.955C110.206 245.707 107.833 261.442 98.7305 274.131C89.6539 286.782 75.5296 294.04 59.983 294.04C58.2367 294.04 56.4997 293.944 54.7791 293.76L73.7367 274.924C74.8651 273.804 75.5016 272.277 75.5016 270.682V253.775C75.5016 252.19 74.8721 250.67 73.753 249.55L56.6653 232.439C55.5461 231.319 54.0283 230.689 52.4452 230.689H35.5604C33.9679 230.689 32.4431 231.326 31.3217 232.456L12.5133 251.438C12.3268 249.715 12.2335 247.976 12.2335 246.228C12.2335 230.658 19.4799 216.518 32.1167 207.429C44.7862 198.315 60.503 195.936 75.2382 200.906C77.3855 201.632 79.759 201.074 81.3631 199.468C81.6918 199.141 199.42 81.2557 199.503 81.1716C201.108 79.5654 201.662 77.1912 200.94 75.0387C195.976 60.2864 198.345 44.5558 207.44 31.8767C216.524 19.2138 230.65 11.9532 246.199 11.9532C247.999 11.9532 249.787 12.0536 251.559 12.2497L232.996 31.1156C231.895 32.2338 231.28 33.7397 231.28 35.3085V52.2157C231.28 53.7658 231.879 55.253 232.954 56.3666L249.445 73.4768C250.568 74.6441 252.119 75.3025 253.739 75.3025H270.624C272.214 75.3025 273.739 74.6675 274.861 73.5352L293.669 54.5549C293.855 56.2779 293.949 58.0171 293.949 59.7657C293.949 86.128 272.529 107.576 246.201 107.576Z" fill="#0177FB"/>
<path d="M186.216 111.377L111.526 186.165C109.197 188.498 109.197 192.282 111.526 194.617C113.857 196.951 117.637 196.951 119.968 194.617L194.659 119.828C196.99 117.496 196.99 113.711 194.659 111.377C192.327 109.042 188.548 109.042 186.216 111.377Z" fill="#0177FB"/>
<path d="M261.641 270.141C263.972 272.468 267.752 272.468 270.083 270.127C272.41 267.79 272.403 264.005 270.069 261.675L216.269 207.977C213.936 205.648 210.154 205.655 207.829 207.991C205.5 210.331 205.507 214.113 207.841 216.443L261.641 270.141Z" fill="#0177FB"/>
</g>
<defs>
<clipPath id="clip0">
<rect width="305" height="306" fill="white"/>
</clipPath>
</defs>
</svg>
