<svg width="33" height="33" viewBox="0 0 33 33" fill="none" xmlns="http://www.w3.org/2000/svg">
<circle opacity="0.2" cx="16.4655" cy="16.4655" r="16.4655" fill="#8695AD"/>
<circle cx="16.4655" cy="16.4655" r="16.4655" fill="url(#paint0_linear)"/>
<path d="M18.2502 18.5133C18.6913 18.0722 18.9118 17.54 18.9118 16.9167C18.9118 16.2934 18.6913 15.7612 18.2502 15.3201C17.8092 14.8791 17.277 14.6586 16.6537 14.6586C16.0303 14.6586 15.4981 14.8791 15.0571 15.3201C14.616 15.7612 14.3955 16.2934 14.3955 16.9167C14.3955 17.54 14.616 18.0722 15.0571 18.5133C15.4981 18.9543 16.0303 19.1748 16.6537 19.1748C17.277 19.1748 17.8092 18.9543 18.2502 18.5133ZM19.1147 14.4557C19.7909 15.1319 20.1291 15.9523 20.1291 16.9167C20.1291 17.8811 19.7909 18.7014 19.1147 19.3777C18.4384 20.054 17.6181 20.3921 16.6537 20.3921C15.6892 20.3921 14.8689 20.054 14.1927 19.3777C13.5164 18.7014 13.1783 17.8811 13.1783 16.9167C13.1783 15.9523 13.5164 15.1319 14.1927 14.4557C14.8689 13.7794 15.6892 13.4413 16.6537 13.4413C17.6181 13.4413 18.4384 13.7794 19.1147 14.4557ZM20.8435 12.7268C21.0023 12.8856 21.0817 13.0767 21.0817 13.3002C21.0817 13.5236 21.0023 13.7147 20.8435 13.8735C20.6848 14.0323 20.4937 14.1117 20.2702 14.1117C20.0467 14.1117 19.8556 14.0323 19.6968 13.8735C19.5381 13.7147 19.4587 13.5236 19.4587 13.3002C19.4587 13.0767 19.5381 12.8856 19.6968 12.7268C19.8556 12.568 20.0467 12.4886 20.2702 12.4886C20.4937 12.4886 20.6848 12.568 20.8435 12.7268ZM17.324 11.3596C16.9183 11.3596 16.6948 11.3596 16.6537 11.3596C16.6125 11.3596 16.3861 11.3596 15.9745 11.3596C15.5687 11.3537 15.26 11.3537 15.0483 11.3596C14.8366 11.3596 14.5514 11.3684 14.1927 11.386C13.8398 11.3978 13.537 11.4272 13.2841 11.4742C13.0371 11.5154 12.8284 11.5683 12.6578 11.633C12.3638 11.7506 12.1051 11.9212 11.8816 12.1446C11.6581 12.3681 11.4876 12.6268 11.37 12.9209C11.3053 13.0914 11.2494 13.3031 11.2024 13.556C11.1612 13.8029 11.1318 14.1058 11.1142 14.4645C11.1024 14.8173 11.0936 15.0996 11.0877 15.3113C11.0877 15.523 11.0877 15.8347 11.0877 16.2463C11.0936 16.6521 11.0965 16.8755 11.0965 16.9167C11.0965 16.9579 11.0936 17.1843 11.0877 17.5959C11.0877 18.0017 11.0877 18.3104 11.0877 18.5221C11.0936 18.7338 11.1024 19.019 11.1142 19.3777C11.1318 19.7305 11.1612 20.0334 11.2024 20.2862C11.2494 20.5332 11.3053 20.742 11.37 20.9125C11.4876 21.2065 11.6581 21.4653 11.8816 21.6888C12.1051 21.9122 12.3638 22.0827 12.6578 22.2004C12.8284 22.265 13.0371 22.3209 13.2841 22.368C13.537 22.4091 13.8398 22.4385 14.1927 22.4562C14.5514 22.4679 14.8366 22.4767 15.0483 22.4826C15.26 22.4826 15.5687 22.4826 15.9745 22.4826C16.3861 22.4767 16.6125 22.4738 16.6537 22.4738C16.6948 22.4738 16.9183 22.4767 17.324 22.4826C17.7357 22.4826 18.0473 22.4826 18.259 22.4826C18.4707 22.4767 18.753 22.4679 19.1058 22.4562C19.4646 22.4385 19.7674 22.4091 20.0144 22.368C20.2672 22.3209 20.4789 22.265 20.6495 22.2004C20.9435 22.0827 21.2023 21.9122 21.4257 21.6888C21.6492 21.4653 21.8197 21.2065 21.9373 20.9125C22.002 20.742 22.0549 20.5332 22.0961 20.2862C22.1431 20.0334 22.1725 19.7305 22.1843 19.3777C22.2019 19.019 22.2108 18.7338 22.2108 18.5221C22.2166 18.3104 22.2166 18.0017 22.2108 17.5959C22.2108 17.1843 22.2108 16.9579 22.2108 16.9167C22.2108 16.8755 22.2108 16.6521 22.2108 16.2463C22.2166 15.8347 22.2166 15.523 22.2108 15.3113C22.2108 15.0996 22.2019 14.8173 22.1843 14.4645C22.1725 14.1058 22.1431 13.8029 22.0961 13.556C22.0549 13.3031 22.002 13.0914 21.9373 12.9209C21.8197 12.6268 21.6492 12.3681 21.4257 12.1446C21.2023 11.9212 20.9435 11.7506 20.6495 11.633C20.4789 11.5683 20.2672 11.5154 20.0144 11.4742C19.7674 11.4272 19.4646 11.3978 19.1058 11.386C18.753 11.3684 18.4707 11.3596 18.259 11.3596C18.0473 11.3537 17.7357 11.3537 17.324 11.3596ZM23.3839 14.1205C23.4133 14.638 23.428 15.57 23.428 16.9167C23.428 18.2633 23.4133 19.1954 23.3839 19.7129C23.3251 20.936 22.9605 21.8828 22.2902 22.5532C21.6198 23.2236 20.673 23.5882 19.4499 23.647C18.9324 23.6764 18.0003 23.6911 16.6537 23.6911C15.307 23.6911 14.3749 23.6764 13.8575 23.647C12.6343 23.5882 11.6875 23.2236 11.0172 22.5532C10.3468 21.8828 9.98218 20.936 9.92338 19.7129C9.89397 19.1954 9.87927 18.2633 9.87927 16.9167C9.87927 15.57 9.89397 14.638 9.92338 14.1205C9.98218 12.8973 10.3468 11.9506 11.0172 11.2802C11.6875 10.6098 12.6343 10.2452 13.8575 10.1864C14.3749 10.157 15.307 10.1423 16.6537 10.1423C18.0003 10.1423 18.9324 10.157 19.4499 10.1864C20.673 10.2452 21.6198 10.6098 22.2902 11.2802C22.9605 11.9506 23.3251 12.8973 23.3839 14.1205Z" fill="white"/>
<defs>
<linearGradient id="paint0_linear" x1="25.6862" y1="3.2931" x2="5.92759" y2="27.9914" gradientUnits="userSpaceOnUse">
<stop stop-color="#532BD6"/>
<stop offset="0.317708" stop-color="#D61B58"/>
<stop offset="0.505208" stop-color="#F14136"/>
<stop offset="0.776042" stop-color="#E67767"/>
<stop offset="1" stop-color="#F8D876"/>
</linearGradient>
</defs>
</svg>
