<svg width="34" height="33" viewBox="0 0 34 33" fill="none" xmlns="http://www.w3.org/2000/svg">
<circle opacity="0.2" cx="16.8448" cy="16.4655" r="16.4655" fill="#8695AD"/>
<circle cx="16.8448" cy="16.4655" r="16.4655" fill="#F9931D"/>
<path d="M19.394 15.8406C18.6119 16.6227 17.6681 17.0137 16.5626 17.0137C15.457 17.0137 14.5132 16.6227 13.7311 15.8406C12.949 15.0584 12.5579 14.1176 12.5579 13.0179C12.5579 11.9124 12.949 10.9685 13.7311 10.1864C14.5132 9.4043 15.457 9.01324 16.5626 9.01324C17.6681 9.01324 18.6119 9.4043 19.394 10.1864C20.1761 10.9685 20.5672 11.9124 20.5672 13.0179C20.5672 14.1176 20.1761 15.0584 19.394 15.8406ZM17.9474 11.6242C17.5652 11.2361 17.1036 11.042 16.5626 11.042C16.0215 11.042 15.557 11.2361 15.1689 11.6242C14.7866 12.0064 14.5955 12.471 14.5955 13.0179C14.5955 13.5589 14.7866 14.0235 15.1689 14.4116C15.557 14.7938 16.0215 14.9849 16.5626 14.9849C17.1036 14.9849 17.5652 14.7938 17.9474 14.4116C18.3355 14.0235 18.5296 13.5589 18.5296 13.0179C18.5296 12.471 18.3355 12.0064 17.9474 11.6242ZM21.1758 17.4989C21.2523 17.6576 21.2964 17.8047 21.3082 17.9399C21.3199 18.0693 21.3052 18.1869 21.2641 18.2927C21.2288 18.3986 21.1523 18.5133 21.0347 18.6368C20.9171 18.7544 20.7907 18.8632 20.6554 18.9631C20.526 19.0572 20.3467 19.1778 20.1173 19.3248C19.4411 19.7541 18.5149 20.0304 17.3388 20.1539L17.9827 20.789L20.3379 23.1442C20.5143 23.3265 20.6025 23.5441 20.6025 23.7969C20.6025 24.0498 20.5143 24.2644 20.3379 24.4408L20.232 24.5555C20.0497 24.7319 19.8321 24.8201 19.5793 24.8201C19.3264 24.8201 19.1088 24.7319 18.9265 24.5555C18.5325 24.1556 17.7475 23.3676 16.5714 22.1915L14.2162 24.5555C14.0339 24.7319 13.8163 24.8201 13.5635 24.8201C13.3106 24.8201 13.096 24.7319 12.9196 24.5555L12.8137 24.4408C12.6314 24.2644 12.5403 24.0498 12.5403 23.7969C12.5403 23.5441 12.6314 23.3265 12.8137 23.1442L15.1689 20.789L15.804 20.1539C14.6102 20.0304 13.6782 19.7541 13.0078 19.3248C12.7784 19.1778 12.5961 19.0572 12.4609 18.9631C12.3315 18.8632 12.208 18.7544 12.0904 18.6368C11.9728 18.5133 11.8934 18.3986 11.8522 18.2927C11.817 18.1869 11.8052 18.0693 11.817 17.9399C11.8287 17.8047 11.8728 17.6576 11.9493 17.4989C12.0081 17.3813 12.0904 17.2783 12.1963 17.1901C12.3021 17.1019 12.4256 17.0372 12.5667 16.9961C12.7079 16.9549 12.8725 16.9608 13.0607 17.0137C13.2489 17.0666 13.44 17.1696 13.634 17.3224C13.6634 17.346 13.7076 17.3783 13.7664 17.4195C13.8252 17.4606 13.9516 17.5341 14.1457 17.64C14.3397 17.74 14.5426 17.8282 14.7543 17.9046C14.966 17.9811 15.2365 18.0516 15.5658 18.1163C15.8951 18.181 16.2274 18.2134 16.5626 18.2134C17.0977 18.2134 17.6093 18.1398 18.0974 17.9928C18.5855 17.8399 18.9383 17.69 19.1559 17.543L19.4911 17.3224C19.6851 17.1696 19.8762 17.0666 20.0644 17.0137C20.2526 16.9608 20.4173 16.9549 20.5584 16.9961C20.6995 17.0372 20.823 17.1019 20.9289 17.1901C21.0347 17.2783 21.117 17.3813 21.1758 17.4989Z" fill="white"/>
</svg>
