<svg width="35" height="30" viewBox="0 0 35 30" fill="none" xmlns="http://www.w3.org/2000/svg">
<path opacity="0.15" d="M25.2109 30H28.6109C30.7443 30 32.2109 29.6 33.0109 28.8C33.8109 27.9333 34.2443 26.4333 34.3109 24.3V18.5C34.3109 11.7667 32.5109 5.76666 28.9109 0.499997L22.5109 2.49999C23.4443 5.63333 23.9776 9.66667 24.1109 14.6C21.0443 14.6 19.4443 16.2667 19.3109 19.6L19.5109 24.3C19.5776 26.4333 20.0109 27.9333 20.8109 28.8C21.6109 29.6 23.0776 30 25.2109 30ZM6.21094 30H9.61094C11.7443 30 13.2109 29.6 14.0109 28.8C14.8109 27.9333 15.2443 26.4333 15.3109 24.3V18.5C15.3109 11.7667 13.5109 5.76666 9.91094 0.499997L3.51094 2.49999C4.51094 5.83333 5.01094 9.86666 5.01094 14.6C2.01094 14.6 0.44427 16.2667 0.310937 19.6L0.510937 24.3C0.577603 26.4333 1.01094 27.9333 1.81094 28.8C2.61093 29.6 4.0776 30 6.21094 30Z" fill="#0177FB"/>
</svg>
