<svg width="128" height="159" viewBox="0 0 128 159" fill="none" xmlns="http://www.w3.org/2000/svg">
<path d="M89.8704 94.4027C69.2978 130.035 42.927 153.325 30.9697 146.422C19.0124 139.518 25.9965 105.035 46.5691 69.4027C67.1417 33.7699 93.5124 10.4802 105.47 17.3838C117.427 24.2873 110.443 58.7699 89.8704 94.4027ZM47.9297 70.1882C28.65 103.582 22.1048 135.897 33.3107 142.367C44.5165 148.837 69.23 127.011 88.5097 93.6171C107.789 60.2236 114.335 27.9081 103.129 21.4384C91.9229 14.9687 67.2094 36.7947 47.9297 70.1882Z" fill="url(#paint0_linear)"/>
<path d="M80.5513 90.4027C59.9787 126.035 33.6079 149.325 21.6506 142.422C9.69332 135.518 16.6774 101.035 37.25 65.4027C57.8226 29.7699 84.1933 6.48023 96.1506 13.3838C108.108 20.2873 101.124 54.7699 80.5513 90.4027ZM38.6106 66.1882C19.3309 99.5817 12.7857 131.897 23.9916 138.367C35.1974 144.837 59.9109 123.011 79.1907 89.6171C98.4704 56.2236 105.016 23.9081 93.8097 17.4384C82.6038 10.9687 57.8904 32.7947 38.6106 66.1882Z" fill="url(#paint1_linear)"/>
<defs>
<linearGradient id="paint0_linear" x1="28.5766" y1="59.1271" x2="89.6314" y2="94.3771" gradientUnits="userSpaceOnUse">
<stop stop-color="#0177FB"/>
<stop offset="1" stop-color="#0177FB" stop-opacity="0"/>
</linearGradient>
<linearGradient id="paint1_linear" x1="19.2575" y1="55.1271" x2="80.3123" y2="90.3771" gradientUnits="userSpaceOnUse">
<stop stop-color="#0177FB"/>
<stop offset="1" stop-color="#0177FB" stop-opacity="0"/>
</linearGradient>
</defs>
</svg>
