<svg width="33" height="33" viewBox="0 0 33 33" fill="none" xmlns="http://www.w3.org/2000/svg">
<circle opacity="0.2" cx="16.5345" cy="16.4655" r="16.4655" fill="#8695AD"/>
<circle cx="16.5345" cy="16.4655" r="16.4655" fill="#4D75A3"/>
<path d="M24.2233 13.6001C24.3586 13.9764 23.9176 14.8409 22.9002 16.1934C22.7591 16.3816 22.568 16.6315 22.3269 16.9432C22.0916 17.2431 21.9299 17.4548 21.8417 17.5783C21.7535 17.7017 21.6624 17.8488 21.5683 18.0193C21.4801 18.1839 21.4448 18.3074 21.4624 18.3898C21.4859 18.4662 21.5242 18.5662 21.5771 18.6897C21.6359 18.8132 21.7329 18.9396 21.8682 19.069C22.0034 19.1983 22.171 19.3542 22.371 19.5365C22.3945 19.5482 22.4092 19.56 22.4151 19.5718C23.2442 20.3421 23.8058 20.9919 24.0998 21.5212C24.1175 21.5506 24.1351 21.5888 24.1528 21.6358C24.1763 21.677 24.1969 21.7534 24.2145 21.8652C24.238 21.9769 24.238 22.0769 24.2145 22.1651C24.191 22.2533 24.1175 22.3356 23.994 22.4121C23.8705 22.4826 23.697 22.5179 23.4736 22.5179L21.2154 22.5532C21.0743 22.5826 20.9097 22.5679 20.7215 22.5091C20.5333 22.4503 20.3804 22.3856 20.2628 22.315L20.0864 22.2092C19.91 22.0857 19.7041 21.8975 19.4689 21.6446C19.2337 21.3918 19.0308 21.1654 18.8603 20.9654C18.6956 20.7596 18.5163 20.5891 18.3222 20.4538C18.134 20.3127 17.9694 20.2657 17.8283 20.3127C17.8106 20.3186 17.7871 20.3303 17.7577 20.348C17.7283 20.3597 17.6783 20.4009 17.6077 20.4715C17.5372 20.542 17.4725 20.6303 17.4137 20.7361C17.3607 20.8361 17.3108 20.989 17.2637 21.1948C17.2226 21.3947 17.2049 21.6211 17.2108 21.874C17.2108 21.9622 17.199 22.0445 17.1755 22.121C17.1579 22.1915 17.1373 22.2445 17.1138 22.2797L17.0785 22.3238C16.9726 22.4356 16.8168 22.5003 16.611 22.5179H15.5966C15.1791 22.5414 14.7498 22.4944 14.3087 22.3768C13.8677 22.2533 13.4796 22.0974 13.1444 21.9093C12.8151 21.7152 12.5122 21.5212 12.2359 21.3271C11.9654 21.1272 11.7595 20.9566 11.6184 20.8155L11.3979 20.6038C11.3391 20.545 11.2567 20.4568 11.1509 20.3392C11.0509 20.2216 10.8422 19.954 10.5246 19.5365C10.2071 19.119 9.8954 18.675 9.58961 18.2045C9.28382 17.7341 8.92217 17.1137 8.50465 16.3433C8.09301 15.573 7.71078 14.7732 7.35795 13.9441C7.32266 13.85 7.30502 13.7706 7.30502 13.7059C7.30502 13.6412 7.31384 13.5942 7.33148 13.5648L7.36677 13.5119C7.45498 13.4001 7.62257 13.3443 7.86955 13.3443L10.2865 13.3266C10.357 13.3384 10.4246 13.359 10.4893 13.3884C10.554 13.4119 10.6011 13.4354 10.6305 13.4589L10.6746 13.4854C10.7687 13.5501 10.8392 13.6442 10.8863 13.7677C11.0039 14.0617 11.1391 14.3675 11.292 14.685C11.4449 14.9967 11.5655 15.2349 11.6537 15.3995L11.7948 15.6553C11.9654 16.0081 12.13 16.3139 12.2888 16.5727C12.4476 16.8314 12.5887 17.0343 12.7122 17.1813C12.8416 17.3224 12.965 17.4342 13.0827 17.5165C13.2003 17.5988 13.3002 17.64 13.3826 17.64C13.4649 17.64 13.5443 17.6253 13.6207 17.5959C13.6325 17.59 13.6472 17.5753 13.6648 17.5518C13.6825 17.5283 13.7178 17.4636 13.7707 17.3577C13.8236 17.2519 13.8618 17.1137 13.8853 16.9432C13.9148 16.7726 13.9442 16.5345 13.9736 16.2287C14.003 15.9229 14.003 15.5553 13.9736 15.1261C13.9618 14.8908 13.9353 14.6762 13.8942 14.4821C13.853 14.2881 13.8118 14.1528 13.7707 14.0764L13.7178 13.9705C13.5707 13.7706 13.3208 13.6442 12.968 13.5912C12.8915 13.5795 12.9062 13.5089 13.0121 13.3795C13.1062 13.2678 13.2179 13.1796 13.3473 13.1149C13.6589 12.962 14.3617 12.8915 15.4555 12.9032C15.9377 12.9091 16.3346 12.9473 16.6463 13.0179C16.7639 13.0473 16.8609 13.0885 16.9373 13.1414C17.0197 13.1884 17.0814 13.259 17.1226 13.3531C17.1638 13.4413 17.1932 13.5354 17.2108 13.6353C17.2343 13.7294 17.2461 13.8617 17.2461 14.0323C17.2461 14.2028 17.2431 14.3645 17.2373 14.5174C17.2314 14.6703 17.2226 14.8791 17.2108 15.1437C17.2049 15.4025 17.202 15.6436 17.202 15.867C17.202 15.9317 17.199 16.0552 17.1932 16.2375C17.1873 16.4198 17.1843 16.5609 17.1843 16.6609C17.1902 16.7609 17.202 16.8814 17.2196 17.0225C17.2373 17.1578 17.2696 17.2725 17.3166 17.3666C17.3696 17.4548 17.4372 17.5253 17.5195 17.5783C17.5666 17.59 17.6166 17.6018 17.6695 17.6135C17.7224 17.6253 17.7988 17.593 17.8988 17.5165C17.9988 17.4401 18.1105 17.3401 18.234 17.2166C18.3575 17.0872 18.5104 16.8902 18.6927 16.6256C18.875 16.3551 19.0749 16.0376 19.2925 15.673C19.6453 15.0614 19.9599 14.3998 20.2363 13.6883C20.2599 13.6295 20.2893 13.5795 20.3245 13.5383C20.3598 13.4913 20.3922 13.4589 20.4216 13.4413L20.4569 13.4148C20.4686 13.4089 20.4833 13.4031 20.501 13.3972C20.5186 13.3854 20.5568 13.3766 20.6156 13.3707C20.6744 13.359 20.7332 13.356 20.792 13.3619L23.3324 13.3443C23.5618 13.3149 23.75 13.3237 23.897 13.3707C24.044 13.4119 24.1351 13.4589 24.1704 13.5119L24.2233 13.6001Z" fill="white"/>
</svg>
